<mxfile host="app.diagrams.net" modified="2024-02-11T15:04:36.886Z" agent="Mozilla/5.0 (Macintosh; Intel Mac OS X 10_15_7) AppleWebKit/537.36 (KHTML, like Gecko) Chrome/121.0.0.0 Safari/537.36" version="23.1.2" etag="FjDzxXW_jIKsh3qafdGQ" type="github">
  <diagram name="Page-1" id="W5fHi8wu7RPtEy4hmDen">
    <mxGraphModel>
      <root>
        <mxCell id="0" />
        <mxCell id="1" parent="0" />
      </root>
    </mxGraphModel>
  </diagram>
</mxfile>
